<svg xmlns="http://www.w3.org/2000/svg" xmlns:xlink="http://www.w3.org/1999/xlink" viewBox="0 0 44.88 45.22"><defs><style>.cls-1{isolation:isolate;}.cls-2{fill:url(#radial-gradient);}.cls-3{fill:#8c98a0;}.cls-4{mix-blend-mode:screen;}.cls-5{fill:url(#linear-gradient);}.cls-6{fill:url(#linear-gradient-2);}.cls-7{fill:url(#linear-gradient-3);}</style><radialGradient id="radial-gradient" cx="8276.83" cy="-7205.01" r="18.84" gradientTransform="translate(3709.55 4646.45) rotate(-90) scale(0.56 0.51)" gradientUnits="userSpaceOnUse"><stop offset="0" stop-color="#fff"/><stop offset="1" stop-color="#b1bfc7"/></radialGradient><linearGradient id="linear-gradient" x1="12.51" y1="14.33" x2="29.19" y2="14.33" gradientUnits="userSpaceOnUse"><stop offset="0" stop-color="#fff"/><stop offset="1"/></linearGradient><linearGradient id="linear-gradient-2" x1="17.26" y1="9.86" x2="21.55" y2="30.35" xlink:href="#linear-gradient"/><linearGradient id="linear-gradient-3" x1="16.27" y1="10.1" x2="20.47" y2="30.15" xlink:href="#linear-gradient"/></defs><title>Mesa de trabajo 5</title><g class="cls-1"><g id="upArrow"><polygon class="cls-2" points="18.83 31.72 18.83 18.06 11.93 18.06 22.44 5.53 32.95 18.06 26.05 18.06 26.05 31.72 18.83 31.72"/><path class="cls-3" d="M22.44,5.94l9.93,11.84H25.79V31.44h-6.7V17.78H12.51L22.44,5.94m0-.82L11.35,18.34h7.23V32H26.3V18.34h7.23L22.44,5.12Z"/><g class="cls-4"><path class="cls-5" d="M19.09,17.78v4.93a32,32,0,0,1,3.5-3.94A28.42,28.42,0,0,1,29.19,14l-6.75-8L12.51,17.78Z"/></g><g class="cls-4"><polygon class="cls-6" points="23 6.61 22.44 5.94 12.51 17.78 13.63 17.78 23 6.61"/><polygon class="cls-7" points="19.69 19.08 19.69 18.51 19.18 18.51 19.09 18.51 19.09 31.44 19.69 31.44 19.69 19.08"/></g></g></g></svg>