<svg xmlns="http://www.w3.org/2000/svg" xmlns:xlink="http://www.w3.org/1999/xlink" viewBox="0 0 44.88 45.22"><defs><style>.cls-1{isolation:isolate;}.cls-2{fill:url(#radial-gradient);}.cls-3{fill:#8c98a0;}.cls-4{mix-blend-mode:screen;}.cls-5{fill:url(#linear-gradient);}.cls-6{fill:url(#linear-gradient-2);}</style><radialGradient id="radial-gradient" cx="32.86" cy="32.1" r="21.82" gradientTransform="translate(0)" gradientUnits="userSpaceOnUse"><stop offset="0" stop-color="#fff"/><stop offset="1" stop-color="#b1bfc7"/></radialGradient><linearGradient id="linear-gradient" x1="13.84" y1="5.71" x2="26.2" y2="28.56" gradientUnits="userSpaceOnUse"><stop offset="0" stop-color="#fff"/><stop offset="1"/></linearGradient><linearGradient id="linear-gradient-2" x1="18.67" y1="6.28" x2="22.69" y2="25.97" xlink:href="#linear-gradient"/></defs><title>Mesa de trabajo 4</title><g class="cls-1"><g id="comment"><g id="Comment-2" data-name="Comment"><path class="cls-2" d="M27.44,32.29l-.08,0a16.88,16.88,0,0,1-4.92.72C14.69,33,8.38,27.91,8.38,21.6s6.31-11.43,14.06-11.43S36.49,15.3,36.49,21.6a10,10,0,0,1-2.78,6.83l-.13.14,2.69,6.32Z"/><path class="cls-3" d="M22.44,10.47c7.58,0,13.75,5,13.75,11.13a9.72,9.72,0,0,1-2.7,6.63l-.26.28.15.35,2.37,5.56L27.61,32,27.44,32l-.17.05a16.61,16.61,0,0,1-4.83.71c-7.59,0-13.76-5-13.76-11.14s6.17-11.13,13.76-11.13m0-.6c-7.93,0-14.35,5.25-14.35,11.73s6.42,11.74,14.35,11.74a16.93,16.93,0,0,0,5-.74l9.35,2.75-2.86-6.72a10.34,10.34,0,0,0,2.86-7c0-6.48-6.42-11.73-14.35-11.73Z"/><g class="cls-4"><path class="cls-5" d="M35.28,19.33c-1.3-4.73-6.56-8.27-12.84-8.27-7.26,0-13.16,4.73-13.16,10.54,0,3.46,2.09,6.53,5.3,8.45C15.88,24.4,24.48,19.92,35.28,19.33Z"/></g><g class="cls-4"><path class="cls-6" d="M10.48,22.8c0-5.81,5.9-10.54,13.16-10.54a14.76,14.76,0,0,1,9.64,3.38,14.3,14.3,0,0,0-10.84-4.58c-7.26,0-13.16,4.73-13.16,10.54a9.51,9.51,0,0,0,3.51,7.16A9.1,9.1,0,0,1,10.48,22.8Z"/></g></g></g></g></svg>