<?xml version="1.0" encoding="utf-8"?>
<!-- Generator: Adobe Illustrator 22.0.1, SVG Export Plug-In . SVG Version: 6.00 Build 0)  -->
<svg version="1.1" id="Capa_1" xmlns="http://www.w3.org/2000/svg" xmlns:xlink="http://www.w3.org/1999/xlink" x="0px" y="0px"
	 viewBox="0 0 537 140.4" style="enable-background:new 0 0 537 140.4;" xml:space="preserve">
<style type="text/css">
	.st0{opacity:0.8;}
	.st1{fill:#FF6520;}
	.st2{fill:none;}
	.st3{fill:#0080B6;}
	.st4{font-family:'SignPainter-HouseScript';}
	.st5{font-size:172.8163px;}
	.st6{letter-spacing:7.3;}
</style>
<g class="st0">
	<g>
		<g>
			<g>
				<g>
					<path class="st1" d="M509.2,113.4c0.4-2.6,0.6-8.4-0.1-7.3L508,116L509.2,113.4z"/>
					<path class="st1" d="M505.8,94.7c-1.1,4.8-2.5,13.1-2.6,22.3c1.4-9.5,1.3-5.5,2.9-16.8c0.7-1.1,1,3.3,0.6,6.9
						c0.4-2.5,0.9,2.2,1.7-4c-0.4-7.7-1.5-8.1-3-1.8C505.2,99.1,505.6,96.6,505.8,94.7z"/>
					<path class="st1" d="M440.8,75.3l0.4,1.2C441,75.9,440.9,75.5,440.8,75.3z"/>
					<path class="st1" d="M400.1,67.5c0.3-0.2,0.5-1.2,0.6-2.1C400.4,66.1,400.1,66.7,400.1,67.5z"/>
					<path class="st1" d="M393.8,56.2c0.1,0.3,0.3,0.5,0.4,0.7C394,56,393.9,55.5,393.8,56.2z"/>
					<path class="st1" d="M440.8,75.3l-0.9-3.2C439.6,75.4,440.3,74.6,440.8,75.3z"/>
					<path class="st1" d="M495.2,118.1c0.3-0.5,0.5-1.4,0.8-2.6c-0.2,0.4-0.4,0.8-0.6,1C495.3,117,495.3,117.5,495.2,118.1z"/>
					<path class="st1" d="M459.3,68.3l0.3,0c0.2-1.1,0.3-2.5,0.5-4L459.3,68.3z"/>
					<path class="st1" d="M473.2,67.6c-0.3-0.4-0.9,8-1.2,11.7c0.4-3.5,0.7-5.1,1-5.7C473.1,72,473.2,70.1,473.2,67.6z"/>
					<path class="st1" d="M494.2,83.8l0.5-1.1C494.6,83,494.4,83.3,494.2,83.8z"/>
					<path class="st1" d="M449.5,65.9c0.1-1.3,0.1-2.4,0.1-3C449.5,64,449.4,65,449.5,65.9z"/>
					<path class="st1" d="M59.7,111c0-0.7,0-1,0.1-1.5C59.6,110.4,59.6,111,59.7,111z"/>
					<path class="st1" d="M45.1,68.7l0.2-0.4c0.1-1.7,0.1-3.2,0.2-4.7L45.1,68.7z"/>
					<path class="st1" d="M381.6,44.7c0,0.1,0,0.1,0,0.2C382,43.9,381.8,44.1,381.6,44.7z"/>
					<path class="st1" d="M263.7,44.9c1,7.6-2.6,9.6-1,18C262.6,59.7,265.1,49.9,263.7,44.9z"/>
					<path class="st1" d="M494.9,117c-0.2,0.1-0.4,0.1-0.6,0C494.6,117.3,494.8,117.3,494.9,117z"/>
					<path class="st1" d="M262.7,62.9L262.7,62.9l0.2,0.9C262.8,63.5,262.7,63.3,262.7,62.9z"/>
					<path class="st1" d="M351.8,48.2c0,1.5,0,2.6,0.1,3.7C351.9,51,351.9,50,351.8,48.2z"/>
					<path class="st1" d="M373.1,61.4l-0.5-1.2C372.8,61,373,61.3,373.1,61.4z"/>
					<path class="st1" d="M339.7,59.5c-0.3-0.7-0.3-1.8-0.8-0.7c0,0.4,0,0.7,0.1,1C339.3,58.6,339.5,58.1,339.7,59.5z"/>
					<path class="st1" d="M327.9,58.9c0,0.6,0.1,1.1,0.1,1.7c0.1-0.2,0.3-0.3,0.4-0.4L327.9,58.9z"/>
					<path class="st1" d="M95.8,108.3c-0.2-2.4-0.2-5-0.3-7.6C95.5,106.7,93.7,108.8,95.8,108.3z"/>
					<path class="st1" d="M495.5,113.4c-0.2,2.1-0.4,3.2-0.6,3.6c0.1-0.1,0.3-0.2,0.4-0.4C495.5,115.3,495.6,114.1,495.5,113.4z"/>
					<path class="st1" d="M335.8,125.9l-1.8-1.3C334.5,125.4,335.1,125.9,335.8,125.9z"/>
					<path class="st1" d="M180.7,110.5l-0.5,1C180.4,111.7,180.6,111.4,180.7,110.5z"/>
					<path class="st1" d="M328.4,125.5c-0.2-3-0.4-4.7-0.8-5.9c-0.1,0.7-0.2,1.2-0.3,2.2L328.4,125.5z"/>
					<path class="st1" d="M95.5,100.6C95.5,100.7,95.5,100.7,95.5,100.6C95.5,100.7,95.5,100.7,95.5,100.6z"/>
					<path class="st1" d="M82.4,120.2c1.8,0.3,1.2-10.8,1.9-17.2c2.3-3.1,0.7,8.2,1.2,13.9c1.4-2.9,2.8-13,3.8-12.5
						c0,1.8,0.2,2.5-0.1,4.8c1.7-8.8,4.2-0.3,6.3-11.3c0.1,1,0.1,1.9,0.1,2.8c-0.1-5.5,0.1-11.2,0.3-15.2c0.8-0.2,1.8-6.9,1.8,0.3
						c-0.5-0.2-0.6,2.7-1,4.9l1-3.1c0.4,10.4-1.3,3.6-1.6,11.3c1.8-3.3,4-11.9,5.2-8.9c-0.1,10.2-3.1,3.3-1.7,12.4l-1.8-4
						c0.9,16.1-1.1-1.2-0.4,16.1c2.4,3,3.1-5.1,5.5-2c0.8-5.6,0.1-8.4,0.9-14c4-10,1.9,25.7,5.1,12.3c0.9-6.8,1.7-19.6,3.4-12.7
						l-1.1,11.5c2.4,1.2,2.1-16.5,4.4-8.6c-0.6,4.5-2.1,3.7-1.8,5.1c1.3,9.2,1.4-6.5,2.7-6.4l-0.1,10.2c2.7-1.5,5.9-8.8,8.9-10.5
						c-0.3,3-0.9,6.2-0.3,9.3c3.9-5,7.8,1.5,11.1,7.7l1.7-8.7c0.3,0.1,0.4,4,0,5.7c1.3,3.4,0.3-5.6,1.1-9c0.8-0.6,0.8,5.1,0.2,7.7
						c2.7-7.4,7.6-15.8,9.8-6.3l-0.6,2.6c1.9,3.7,3-17.9,4.5-9.7l-0.4,1.5c4.2,4,9.3-3.9,12.1,9.6c1.2-12.6,4.1,5.8,5.1-11.8
						c2.1,8.9,1.3,12,4.5,18c0.9,0.9,1.9-11,3.1-12.8l-0.4,9.2l2-9.6l0.4,11.1l1.2-2.3c-0.4-0.6-0.7-4.2-0.6-6.8
						c1.9-4.1,3.9,6.6,3.7,11.4l4.3-7.6c-0.2,3.7-1,5-1.6,7.3c2.5-9.3,0,9.7,2.3,1.2c-0.2-2.1,0.4-5.5,0.5-7.4
						c0.7,5.6,3,5.8,4.7,3.5l-0.6,6.4c2.9,1.8,6.4-2.8,9.7-2.5c-1.1-3-0.3-14,0.7-15.1l0,9.8c0.9-6-0.9-3.7,0.8-11.1
						c1.2,1.2,0.3,11.1-0.5,14.3l1.7-3.3c0,2.9-0.5,4.4-0.7,8.2c0.9-6,2.2,9.9,3.5-0.6l0,2.9c3.3,0.2,5-3.1,7.7-3.4
						c0.4-8.4,1.4-6.5,2.5-13.3c1.9,2.8,3.8,9.5,6.2,8.9c1.9-4.1,0.8-7.1,1.8-12.1c-0.2,7.7,2.2,7.1,0.7,12.5
						c2.9-1.1,3.8-1.4,7.7-7.4c-0.3-3.2-0.6-4.5-0.3-7.2c0.7-1.2,1.4,3.3,1.1,7l-0.2,0.8c4.6-11.3,8.4,22.8,12.4,7l-0.2,0.8l3.8-8.2
						c1.5,1.4-1.2,5.7-0.3,10.5c4.3-12.6,5.7,2.1,9.1-6.3c1.2,22.8,8.3-1.2,10.8,13.4l0.1-5.3c1.1-5.2,0.8,3.1,1.4,4.3
						c0.1-4.1-0.6-4.8,0-7.7c7.2-6.1,13.8,8.5,20.6,13.6c2.5,1.6,2.8-27.5,5.4-14.6l-1.4,9.9c5.8-11.6,10.6,0.9,16.2-8.9
						c-0.4,2.3-0.6,5.2-1.1,5.2c0.7,7.2,4,0.6,4.3-5.3c0.8,0.7-0.1,5.3,0.2,8.3c0.9,4.3,3.2-9,3.4-1.9c0,1.2-0.4,2.3-0.6,2.9
						c0.9-3.4,3.2,1.1,3-7.3c1.7,4.1,3.8-3.5,5.1,1.5c1.5-9.2,3,4.6,4-8.5c-0.8,13.5,2.8,11.1,4.3,4.8c-0.6,4.1,0.8,4.3,0.1,9.9
						c1.4-0.1,2.8-2.6,2.9-9.5c1.7,16.3,5.8-12.8,6.1,8.1c4.5-7.1,8.5-11.8,12.4-14.8c-0.9,13.5-4.1,1.1-4.7,15.3
						c3.8-5.4,6.4-16.9,9.7-13.4c0.8,1.9-0.8,5.8-1.3,8.1c3.8-5.4,6.7,1.6,10.2-5.6c-0.1,1.3-0.5,2.6-0.9,3.6
						c0.6-0.4,1.3,2.1,1.6-4.1l-0.7,1.6c-0.5-9,3.4-18.5,3.8-23.2c-2,17.5,2.8,4.6,0,26.7c0.5-1.1,1.1-4,1.3-8.1
						c0.5,1.2,0.6,3.6-0.3,8.3c2.4-3.2,2-9.8,3.9-9.5c-0.2,3-0.6,4.1-1,7.6c1.3-5.7,2.7-11.5,4.2-8.9c-0.2,1.8-0.1,4.1-0.6,4.1
						c2.9-0.7,5.8-15.2,8.6-9.4c-1.7,12.9,0.8,4.3,0.4,15.5l1.9-3.2l-0.4-5.5c1.5,0.3,3.3-7.8,4.3-4.1l-1.4,4.5l2.9-2l-1.3-4.3
						c1.8-5.7,0.6-14.2,2.4-10.9c-0.5,1.1,1.5,0.2,1.9,6.9c0,0,0,0,0,0c0.9-3.5,1.9-7.2,2.9-4.4c0.1,3.6-0.9,12.4-0.9,14.7
						c1.3-9.3,3.6-2.4,5.1-12.3c-0.4,2.3-0.8,8.2-0.8,9.4l1-7.6c0.6,2.5,0.6,3.7,0.2,8.3c2,1.5,0.1-14.2,2.3-8
						c-0.2,0.6-0.2,1.7-0.7,2.9c2.3,3.3,5.1-4.5,7.1-0.7c0,11.3-2.1,2.6-1.9,12.2c3.4-1.9,7.6-13.1,10.6-10.3l-0.5-1.3
						c1.4-15.9,1.9,8,4,0.6c-0.5,1.2-1,8.8-0.8,7c2,2.7,4.7-3.6,8.3-8.5l-0.6,4.1c1.1,3.7,3.3,2.3,4.5,4.2c0.6-4,1.4-3.3,1.3-9.3
						c2.9,23.5,8.9-12,11.5,7.6c-0.5,0-1.3,3.5-0.9,3.5l3.4-3.6c0.2-6.9-0.2-4.2-0.5-9.6c0.7-4.1,1.8-7.2,2.6-7.2
						c-1.7,4.5-0.6,11.1-0.3,15c0-2.1,0.4-4.5,0.5-6.6c1,12.4,1.1-13.9,2.9-5.5l-0.3,3.6c1-1.8,2.1-6.6,2.9-5.5
						c-0.1,8-1.1,3.7-1.6,10.3c1.3-0.4,3.5-15,4.2-7c-0.7,2.2-1.5,2.2-2.2,4.4c0.7,9.5,1,7.1,1.9,8.6l-0.1-0.2l2,4.4l-0.4-2.6
						c2.9-20.8,3.6-3.6,6.6-17.1c-2.9,12.8-0.8,7.5-1.5,16.5c0.4,2.6,1.1,5.4,0.7,8c1.5-7.3,1.4,5.9,3.5-4.7
						c-0.1,2.9,1.1,0.4,0.4,7.7c1.5-2.2,0-5.1,0.3-8.8c2.7-9.9,4.2,12.4,8-1.1c2.9-5.5,4-15.3,6.7-20c0.5,4.7-1.3,10.6-1.3,10.6
						c1,4.4,2.1,3.7,3.5,0.4c-0.4,2.5-0.3,4.7-0.1,8c1-0.7,1.3-10.6,2.4-6.2c-0.4,3.2-1,8.4-1.7,11.7c1.3-2.6,2.8-8,4.2-10.6
						c0,5.1-1.2,7.7-1.8,11c1.5-2.2,3.8-4.4,4.7-12.4l-0.7-2.9c0.5-0.4-0.2,6.9-0.6,8.4c-1.6,6.2-1.5-2.9-1.4-5.8l1-1.8
						c0.2-17.2-3.6,2.5-5.3,1.4l1.5-12.4l-2.4,10.2c-0.2-3.3,0-10.2,1-12c-0.9-6.2-1.4,4.4-2-2.6c-0.1-1.1,0-1.7,0.2-2.2l-1.4,3.6
						c0.4-2.6,0.3-8.8,1-7c-1.7-7.3-4.1,9.1-4.3-0.4l0.2-0.8c-3.3,4-0.9,9.1-3.8,19.7l-0.1-22.7l-0.9,9.1c-0.3-0.3-0.9-1.1-0.5-4.7
						c-1.5,6.2,0,4-1.1,9.9c-1-8.4-4.4,3.6-3.8-10.9c-1,6.9,1.1,5.5-0.8,10.2c0.5-15.7-2,2.6-2.9-4.7c0.9-8.1,1.9-3.7,1-11
						c-1.7,13.6-2.5-3.1-3.8-0.6c-0.7,10.9-2.8,4.4-4.9,7.9c0.3-3.6-3.3-6.2-4.9-10.2l0.2-1.8c-1,11-2.7,8.8-4.2,11
						c0.4-6.6,0.8-9.2,1.8-12.1l-1.3,0c-0.5,3.5-1,5.3-1.9,6.5l0.8-8.2c-1.7,0.4-4,9.5-5.8,3.9c-0.6,7.7,0.5,21.5-2.1,26.4
						c0.2-4.1,0.5-11.2,1.2-12.9c-0.2,0.5-0.9,3.4-1.2,1.6l1.3-6.9c-0.8-3.1-0.9,5.8-1.6,5.1c0.4-5.9-0.3-4.3,0.1-8.9
						c0.2-0.6,0.5,2.5,1,0.2c-0.8-1.1-1.7-4.7-1.8-9.2c-0.1,3.4-0.5,8-1.2,8.7c-1.7,0.3-0.2-7.1-1-10.2c-0.7,4.1-1.5-0.2-2,8.6
						c-0.5-0.1-0.3-4.2-0.4-6.6c-1.1,3.9-4.2,0.9-3.7,10.3l0.2,0.6c-0.1,0.2-0.1,0.2-0.2,0.4c0,0,0,0,0,0l0,0
						c-3.4,8.6-5.7-5.4-8.7-1.7l0.2-3c-1.9,3.3-3.9,1.8-5.5,8.1c-0.5,0-0.9-5.5-0.5-9c-1.4,2.1-1.8,5.5-3.4,0.5
						c1.6-5.1-0.2-4.6,1.6-3.7c-1.5-2.6-1.7-7.4-3.9,0.6c1.1-7.5-0.7-9.6-1.7-7.4l0.9,5.5c-1,1.1-1.7,0.3-2.5-0.4l1-9.9
						c-2.8-12.3-7.4,20.3-8.9-0.2c-1.3,6.9,1.6,5,0.3,13.1c-1.5-1.4-2.4-15.8-2.9-15.9c-1.9-5.6-2.9,14.4-4.9,10.5
						c0.1,3.6-0.2,13.1-2.1,16.3c-1.5-1.4-1.1-15,0-17.8c0.4-0.3,0.5,0.9,0.4,2.1c0.6-1.3,1.3-2.7,0.9-6.6l-0.4,3.5
						c-0.6-3.7-2.8-3.4-2-9.2c-1.4,3.3-0.8,5.8-0.1,7.7c-1.8-5.3-3.2-0.3-5.1-3.9c0.2,2,0.3,6.2,0,6.1c-2.8-4.6-1.7,6.7-3.9,8.1
						c-0.9-5.5,1.1-12.9-1.2-8.5c-1.1-3.7,0.2-9.4,0.9-12.3c-2.3,6.7-3.3-4.7-4.4-6l1.2-2.8c-0.7,1.7-1.2,1.6-1.7,1.5l0.2,7.1
						c-0.5-1.3-1-1.3-0.9-4.3c-0.9,4.6-0.2,11.9-1.7,18.2c-0.6-3.7-2.6,3.7-2.4-5.7c2.3,3.3,0.2-9.5,2.4-10.9c-0.5,1.1-1,1-1.5-0.2
						c0-1.1,0.2-1.9,0.4-2.5c-1.9-8.6-1.7,10.6-4.1,10.3c0.6-5.3,0-10.1-0.5-9c1,0.2,0,8.9-1.1,12.9c-1.4-4.2-1.9,3-2.7,2.5l0.8,2
						c-0.6,5.3-1.4,4.6-2.6,6.2c0.1-4.1,1.2-2.8,0.9-4.6c-1.7,9.3-2.2-9.8-4.3-3.6c-0.6-3.7,0.5-10-0.1-12.5c-2.3,6.8-1.7-7.4-4-1.8
						c0.2,7.2,0.4,5.4-1.4,12.3l3.6-4.9l-2.7,10.3c1,0.2,2.3-4.4,2.9-3.1c-1.3,5.8-1.1,4-1,10c-0.8-10.8-3,6.1-4.2-1.2l1-17.7
						c-2-8-4.7,8.9-7.5,4.2l0.8,3.1c-0.8,7-2,0.9-3.1,3.7c0.4-5.9-0.1-8.1-0.3-11.8c-0.2,4.4-2.2-0.5-3.1,11.3l-1-7.9
						c-2.3-3.3-3.7,16.7-6,14.6c1.1-6.4,0.2-10.6,2-15.2c-0.8-0.1-1.5-1.2-1.7,2.9c-0.3-3.7-2.6,7.9-3.1,2.2
						c-0.5,2.6-0.9,8.8-1.8,8.2c0-1.2,0.2-2.9,0.2-2.9c-0.2,2.9-1.6,3.9-1.2,10.5c-1.5-18.6-6.9,1-8.3-15c-1.8,1.9-4,3.7-5.6,4
						c0.2-1.8,0.2-2.9,0.4-2.3c-1.9-5.6-2.2,16.9-4.4,10.6c-0.8-9.6,1.6-5.1,1-8.8c0.6-19.5-3.1,2.5-4.2-8.9l0.5-1.1
						c-0.9-6.7-3.5,7.2-5.5,5.7c0,0,0.2-1.7,0.2-2.9c-1.9,9.9-4.8,13-6.9,15.7c1-7.6,1.1-4,1.1-11.7c-1,1.1-0.4,12.4-2.3,14.5
						c-0.4-4.2-1.5-7.9-1.2-16.2l1.7-0.4c-0.3-10.7-2.2,0.3-3-1.6l0.3-4.7c-2.7,1.4-3.3,13.2-6,12.2l0.1,3.5c-2.1,11.6-1-6.6-2.9,2
						l0.1-11.9c-1.1,2.8-4.1,11.3-6,13.4c1.5-8.7,3.8-13.1,5.3-18.2c-1-0.1-3.4,0.7-4.2,6.5c0.5-1.1,1.1-4,1.4-2.2
						c-1.7,9.2-3.5,13.7-5.5,13.4c1.5-22.9-4.9-6-5.5-23.9c-3.9,8.3-6.8-3.9-11-2.8c0.6,17.9-1.2,0.4-1.8,18.8
						c-1,1.1-1.4,0.8-1.4-0.4l-2.4-11.1c-0.4-5.4,1.1-4,1.2-8.1c-2-1.5-0.5-7.8-1.7-12.7c0,6.6-1.2,9.4-2.2,6.8l1.3,8.5
						c-3.4,9.6-1.8-15.5-5.2-6l1.2-5.7c-1.7,3.3-5.6-0.4-7.7,14.3c-0.2-2.1-0.3-7.2,0.4-8.4c-3.5-2.4-8.8,15.3-11.2,6.1l0.5-4.5
						c-0.7,1.3-1.6,8.4-2.2,3.8c0.1-1.9,0.5-4.5,0.2-4.7c-0.4,1.5-2.1,7.8-2.9,5.1l1-5c-3.3-6-6,12-9.1,15c0.6-13.2-2-17.6-3.3-19.8
						l0.1-1.9c-4-1.8-7.5,10.6-11.5,15.6c-1.7-14.4-7.7-6.4-11.2-14.5c0.5,2.4-0.5,10.3-1.3,11.6c-0.8-2.7-2.9,9-2.2-3.1l0.3,0.2
						c-0.2-11.9-2.1-8.8-3.5-9.2l-0.9,15.8c-2.7-23.2-10.1,8-11.3-12.7c-1.1,3.9-2.2,3.8-3.2,7.7l0.4-8.5c-2.4-2.3-3.6-3.4-6.8-1.5
						l0.9-6c-1.7-0.6-3.2,24.4-4.8,24.8l0-12.7c-3,0.1-5.7-11.2-9.1,0.2c0.1-1.9,0.4-5.5,0.9-6c-1.4-0.4-5.2-8.8-5.4,8.6
						c0.4-11.3-3.1-1.2-4.9,3.7l0.6-8.3c-1.8,10.6-2,13.5-4,16.4c-0.4-1.1-0.1-6.7,0.4-4.5c-1.3-4.4-1.5,7.9-3.2,3.3l0.9-5.3
						c-1.5-0.7-1.5,2.2-2.6,8.3c-1.1,3.3-2.9-2.2-2.8-9.8c-0.4,4.6-1.5,10.7-2.3,8.5c0-2.9,0.4-4.6,0.6-5.5
						c-2.4-5.8-4.3,9.6-5.8,1.3c0.1-2.8,0-4.2-0.1-5c2.1,0.3,3.7,0.8,3.6,1.4c0.3-7.7-1.3-9.1,0.4-19.7c-1.6,5.8-4.4,18.3-5.9,14.6
						c-0.1-0.7-0.1-1.5-0.1-2.7l0.2-0.9c-0.3-0.8-0.7-0.1-1.1,1.2c-0.5-1.3-0.8-2.2-1.3-2.4c0.1-6.4-1.8-3.5-2.6-3.8
						c-0.3,8.4-1.3,7-0.5,14c-0.1-0.6,0.2-1,0.8-1.3c0.1-0.2,0.3-0.4,0.4-0.9c0,0.2-0.1,0.5-0.1,0.7c0.6-0.2,1.3-0.4,2.1-0.5
						c-0.8,4.3-1.7,7.8-2.4,3.1c-0.6,5.4-1.3,10.9-1.7,13.6c-0.7-11.8-2.7-18.2-2.7-25.5c-2.7,4.6-6.2,2.9-8.4,18.7
						c-0.8,2-0.7-4.6-0.8-7.1c0.5-1.6,1-1.3,1.3-3.6c-1.6,4-4.4,1.4-5.1,12.5c-1.6-5.1,1.4-10.1-1.2-8.4l0.5-3.4
						c-4.3-17.9-9.1,27.9-13.8,5c0.3,1.4,0.5,2.1,0.5,3.9c-5.9-10.2-13.3,8.9-18.9-7.2c-1.6-3.3-2.1,3.8-3.4,9.1l-0.1-9.1l-2.2,10.4
						c-2.9,7.6-3.7-22.4-7.5-8l0.2,6.1c-1.1-1.2-3.9,3.5-3.4-3.5c-0.2,1.1-0.6,6.3-1,3.1l0.1-4.7l-3.2,8c-2.1-3.5,1-18.8-2.3-19.8
						c-1.3,1.8-4,13.7-3.6,16.9c0.5,0.3,1.2,3,1,7.7l-1.2,2.4c-0.7,14-2,28.2,0.4,38.1l2.2-8.5l0.4,6.8l-1.6,0.4
						c0.7,6.4,1.5,0.8,2.2-3.1c0,3.6,0.2,6.1,0.5,7.5l2.3-13.3c0,5.5-1.2,10.8-0.1,13.9c1.1-6.2-0.4-12.3,1.2-16.3
						c0.7,6.4,0.2,11.5,1.5,6.2c0,3.6-0.3,5.9-0.8,7.4c1.1-4.3,2.6-1.7,3.3-9.1c0.7,7.9,3.3-1.9,2.7,11.3c0.4-3.2,2-10.3,2.9-10.8
						c-2.2,15.8,3.2,1,2.2,18c1.7-14.2,4.5-6.2,6.9-14c-0.2,1.1-0.5,3.4-0.6,2.7c1.1,1.2,1.3,5.5,2,8.2c0.6-11.7,2.5-14.4,3.8-21.6
						c1,11.4-1.4,13.8-1.3,24.7c0.3-9.5,2.9-9.4,2.7-17.4c0.9,7.1,0.8,3.4,1,13.2c0.7-14.7,1.1-2.5,2.4-11.4
						c1.3,7.3-0.1,13.8,1.8,9.4C84.2,115,82.4,120.2,82.4,120.2z M125.2,96.3c0,0.1,0,0.1,0,0.2c-0.4,0.2-0.7,0.3-0.9,0.4
						C124.5,96.8,124.8,96.7,125.2,96.3z M128.7,96.4c-0.4-0.3-0.9-0.4-1.5-0.4c0-2.9,0.2-5.9,0.6-5.7
						C127.5,92.2,128.3,93.9,128.7,96.4z M123.6,37.7c0.6-1.2,0.7,0.5,0.7,2.2c-0.3,0.1-0.6,0.4-1,1c0,0.3-0.1,0.8-0.1,1
						C123.3,40.3,123.4,38.8,123.6,37.7z"/>
					<path class="st1" d="M122.1,48.7c-0.1,0.2-0.1,0.5-0.3,0.6c0.1,0.7,0.2,1.4,0.3,1.9c0.1-0.9,0.2-1.8,0.3-2.6
						C122.3,48.6,122.2,48.6,122.1,48.7z"/>
					<path class="st1" d="M441.2,76.7l-0.1-0.2c0,0.3,0.1,0.7,0.1,1.2C441.2,77.3,441.2,77,441.2,76.7z"/>
					<polygon class="st1" points="176.6,114.5 176.7,112.3 176.3,114.2 					"/>
					<path class="st1" d="M458.9,106.7c0,0.7,0,1.5,0.1,2.2C459,108.4,458.9,107.6,458.9,106.7z"/>
					<path class="st1" d="M467.1,109.1l1,3.1C467.7,110.5,467.4,109.6,467.1,109.1z"/>
					<path class="st1" d="M473.3,113.7c0.2-1.5,0.3-2.6,0.3-3.6c0,0,0,0,0-0.1L473.3,113.7z"/>
					<path class="st1" d="M370.5,117.7c-0.1,0-0.2,0.1-0.3,0.4C369.6,119.7,370,119.1,370.5,117.7z"/>
					<path class="st1" d="M402,99.7c-0.4,1.5-0.8,3-1.2,3.9C401.3,104.3,401.7,104.5,402,99.7z"/>
					<path class="st1" d="M336,126.1c0-0.1,0,0,0-0.1c-0.1,0-0.1,0-0.2,0L336,126.1z"/>
					<path class="st1" d="M399.4,103.4c0.4,1.7,0.9,1.4,1.4,0.2C400.4,103.1,399.9,102.2,399.4,103.4z"/>
					<path class="st1" d="M500.9,119.2l0.3,0.4c0-0.6,0.1-1,0.1-1.4L500.9,119.2z"/>
					<path class="st1" d="M501.3,118.2l0.4-1C501.6,117.3,501.4,117.3,501.3,118.2z"/>
					<path class="st1" d="M502.6,115.2l-0.9,2.1C502,117.3,502.3,117.6,502.6,115.2z"/>
					<path class="st1" d="M492.6,114.8l-0.3,3C492.5,117.2,492.6,116.2,492.6,114.8z"/>
					<path class="st1" d="M490,115.5c0.6,0.7,1.1,6.6,2.1,4.7l0.2-2.4C491.7,122.4,490.9,110.4,490,115.5z"/>
					<path class="st1" d="M481.5,77.1l2,2.6c-0.2-3.3-0.4-7.7,0.6-8.4C482,61.4,484.3,78.6,481.5,77.1z"/>
					<path class="st1" d="M475.1,72c1.3-1.4,0.3-4.7,0.4-6.6C474.6,68.4,474.4,69.1,475.1,72z"/>
					<path class="st1" d="M426.4,69.1l0.6-7.7C426,62.5,426.7,64.4,426.4,69.1z"/>
					<polygon class="st1" points="414.8,108.2 415.4,113 416.2,106 					"/>
					<polygon class="st1" points="412.4,53.3 412.9,52.2 411.2,54.9 					"/>
					<path class="st1" d="M330.4,51.6l-0.2,9.4C330.9,59.4,331.5,48.8,330.4,51.6z"/>
					<path class="st1" d="M294.5,59.4c-0.2-4.7-1-7.8-1.8-3.2C293.5,56.9,294.1,60.6,294.5,59.4z"/>
					<polygon class="st1" points="189.2,39.1 190.1,36 188.6,38.6 					"/>
				</g>
			</g>
		</g>
	</g>
</g>
<rect x="19.6" y="10.6" class="st2" width="498.4" height="111.3"/>
<text transform="matrix(1.0985 -5.756956e-02 5.233596e-02 0.9986 27.8525 121.5659)"><tspan x="0" y="0" class="st3 st4 st5 st6">M</tspan><tspan x="107" y="5.3" class="st3 st4 st5 st6">a</tspan><tspan x="185.4" y="9.5" class="st3 st4 st5 st6">r</tspan><tspan x="250.5" y="13.3" class="st3 st4 st5 st6">b</tspan><tspan x="319.4" y="16.7" class="st3 st4 st5 st6">l</tspan><tspan x="367.2" y="19.9" class="st3 st4 st5 st6">e</tspan></text>
</svg>
