<svg id="userPic5" xmlns="http://www.w3.org/2000/svg" xmlns:xlink="http://www.w3.org/1999/xlink" viewBox="0 0 44.88 45.22"><defs><style>.cls-1{fill:none;}.cls-2{fill:#e30613;}.cls-3{fill:#0b1213;}.cls-4{stroke:#000;stroke-miterlimit:10;stroke-width:0.25px;fill:url(#Tribal);}</style><pattern id="Tribal" data-name="Tribal" width="267" height="220.13" patternUnits="userSpaceOnUse" viewBox="0 0 267 220.13"><rect class="cls-1" width="267" height="220.13"/><path class="cls-2" d="M213.14,2.62a3,3,0,0,0-2.56,4.43L268.34,107.1a3,3,0,0,0,5.12,0l57.76-100a3,3,0,0,0-2.56-4.43Z"/><path class="cls-3" d="M241.05,8.35a.36.36,0,0,0-.35-.11,48.78,48.78,0,0,1-23.23-.31.13.13,0,0,0-.15.06.14.14,0,0,0,0,.16,48.5,48.5,0,0,1,11.88,20,.36.36,0,0,0,.28.24.33.33,0,0,0,.34-.14A16.9,16.9,0,0,1,241,21.66a16.83,16.83,0,0,1,.09-12.94A.38.38,0,0,0,241.05,8.35ZM272.37,98a.34.34,0,0,0,.44-.15l8.85-15.33c7.51-12,4.29-23.93-2.73-28,4.87.78,11,4.28,11.75,11.69a.13.13,0,0,0,.12.11.13.13,0,0,0,.14-.08c2.12-6,.75-12.85-4.32-18.24,7.21,1.69,13.81-.54,18-5.38a.15.15,0,0,0,0-.17.14.14,0,0,0-.16,0c-6.78,3.07-12.89-.51-16-4.33,7,4.05,18.92.9,25.6-11.63,3.37-5.82,6.8-11.76,8.85-15.33a.36.36,0,0,0-.09-.46.36.36,0,0,0-.47.05c-5.38,5.81-11.82,9.69-17.7,10.05a.14.14,0,0,0-.12.12.12.12,0,0,0,.08.14,15.82,15.82,0,0,0,7.31,1.2c-4,5-11.47,10-18.59,5.85-2.84-1.63-4.43-4.83-2.8-7.66a5.26,5.26,0,0,1,9.88,1.67.12.12,0,0,0,.1.11.13.13,0,0,0,.14-.07c4.14-7.48,7.86-10.42,15.43-14.06a.14.14,0,0,0,.08-.15.14.14,0,0,0-.13-.1H279.84a.13.13,0,0,0,0,.25,72.81,72.81,0,0,1,10.54,4.84c-8.47,1.61-13.15,13.09-3.8,20.57C273.52,28,270.94,17.2,277.12,8a.12.12,0,0,0,0-.13.14.14,0,0,0-.12-.07H253.29a.13.13,0,0,0-.08.23c3.09,2.37,4.74,5.32,3.26,10.08a.14.14,0,0,0,.06.16.15.15,0,0,0,.17,0c2.21-2.6,3.48-5.7,2.94-8.09,4.82,2.56,8,6.6,5.91,10.29-4.1,7.1-19.31-.14-19.77-12a.14.14,0,0,0-.11-.12.13.13,0,0,0-.15.07,16.93,16.93,0,0,0,2.74,17.5,16.92,16.92,0,0,0-16.52,6.38.12.12,0,0,0,0,.16.14.14,0,0,0,.17,0c10.54-5.55,24.42,4,20.32,11.11-2.13,3.69-7.24,2.91-11.87,0,2.34-.74,4.39-3.38,5.53-6.6a.13.13,0,0,0,0-.16.14.14,0,0,0-.17,0c-3.38,3.66-6.77,3.71-10.36,2.21a.13.13,0,0,0-.15,0,.14.14,0,0,0,0,.15L247,59.77a.13.13,0,0,0,.12.07.12.12,0,0,0,.11-.08c4.87-9.94,15.54-13.12,26.75-4.58-11.15-4.35-18.75,5.44-15.91,13.58a73.35,73.35,0,0,1-9.46-6.71.13.13,0,0,0-.2.17L266.5,93.53a.14.14,0,0,0,.15.06.13.13,0,0,0,.09-.14c-.63-8.38.06-13.07,4.47-20.4a.14.14,0,0,0,0-.15.13.13,0,0,0-.15,0,5.26,5.26,0,0,1-6.39-7.72c1.63-2.83,5.21-3,8-1.41,7.13,4.12,6.51,13.06,4.24,19a16,16,0,0,0-4.7-5.73.15.15,0,0,0-.16,0,.14.14,0,0,0,0,.17c2.63,5.27,2.48,12.78.14,20.35A.36.36,0,0,0,272.37,98Zm-11.1-54.57A13.71,13.71,0,0,0,257.14,31,13.67,13.67,0,0,0,270,28.34c-.62,3.52.4,8.28,4.22,12.49C268.65,39.62,264,41.12,261.27,43.41Z"/><path class="cls-2" d="M258,108.6a3,3,0,0,0,2.56-4.43l-57.76-100a3,3,0,0,0-5.12,0L139.9,104.17a2.94,2.94,0,0,0,0,3,3,3,0,0,0,2.56,1.48Z"/><path class="cls-2" d="M320.87,217.51a3,3,0,0,0,2.55-4.43L265.66,113a3,3,0,0,0-5.12,0L202.78,213.08a3,3,0,0,0,2.56,4.43Z"/><path class="cls-2" d="M195.11,217.51a3,3,0,0,0,2.55-4.43L139.9,113a2.95,2.95,0,0,0-5.11,0L77,213.08a3,3,0,0,0,2.56,4.43Z"/><path class="cls-3" d="M189,31.39a16.83,16.83,0,0,1,11.25,6.39,16.85,16.85,0,0,1,11.26-6.39.38.38,0,0,0,.29-.23.36.36,0,0,0-.07-.36,48.64,48.64,0,0,1-11.35-20.27.14.14,0,0,0-.13-.1.12.12,0,0,0-.12.1A48.75,48.75,0,0,1,188.75,30.8a.34.34,0,0,0-.07.36A.35.35,0,0,0,189,31.39Zm61.39,71.32c-7.72-1.76-14.3-5.39-17.56-10.3a.13.13,0,0,0-.15,0,.13.13,0,0,0-.09.14,15.86,15.86,0,0,0,2.62,6.94c-6.31-1-14.37-5-14.37-13.18,0-3.27,2-6.26,5.24-6.26a5.25,5.25,0,0,1,3.49,9.39.14.14,0,0,0,0,.15.14.14,0,0,0,.12.09c8.55-.16,13,1.59,19.9,6.33a.13.13,0,0,0,.19-.17L231.64,64.48a.13.13,0,0,0-.16-.06.14.14,0,0,0-.09.15,72.4,72.4,0,0,1,1.08,11.55c-5.63-6.54-17.91-4.85-19.71,7-1.79-14,6.3-21.63,17.34-20.87a.13.13,0,0,0,.12-.06.12.12,0,0,0,0-.14L218.36,41.49a.11.11,0,0,0-.14-.06.12.12,0,0,0-.1.11c-.5,3.85-2.23,6.76-7.1,7.86a.13.13,0,0,0,0,.26c3.35.62,6.67.17,8.48-1.5.18,5.46-1.7,10.27-6,10.27-8.21,0-9.54-16.79.54-23.15a.13.13,0,0,0,.06-.16A.12.12,0,0,0,214,35a16.91,16.91,0,0,0-13.79,11.11A16.88,16.88,0,0,0,186.44,35a.12.12,0,0,0-.14.08.14.14,0,0,0,0,.16c10.08,6.36,8.75,23.15.55,23.15-4.26,0-6.14-4.81-6-10.27,1.81,1.67,5.12,2.12,8.48,1.5a.14.14,0,0,0,.11-.13.13.13,0,0,0-.1-.13c-4.87-1.1-6.6-4-7.1-7.86a.13.13,0,0,0-.11-.11.12.12,0,0,0-.14.06L170.22,62a.17.17,0,0,0,0,.14.16.16,0,0,0,.12.06c11-.76,19.14,6.89,17.35,20.87-1.8-11.83-14.08-13.52-19.72-7a73.62,73.62,0,0,1,1.08-11.55.13.13,0,0,0-.08-.15.13.13,0,0,0-.16.06L150.73,95.79a.12.12,0,0,0,0,.16.12.12,0,0,0,.16,0c6.94-4.74,11.35-6.49,19.9-6.33a.14.14,0,0,0,.13-.09.13.13,0,0,0,0-.15A5.26,5.26,0,0,1,174.39,80c3.27,0,5.24,3,5.24,6.26,0,8.22-8,12.16-14.36,13.18a15.85,15.85,0,0,0,2.61-6.94.12.12,0,0,0-.08-.14.14.14,0,0,0-.16,0c-3.25,4.91-9.83,8.54-17.56,10.3a.35.35,0,0,0,.08.7h17.7c14.19.47,22.87-8.25,22.87-16.37,1.76,4.62,1.8,11.69-4.24,16a.13.13,0,0,0,.1.24c6.26-1.17,11.49-5.78,13.63-12.86,2.15,7.08,7.38,11.69,13.64,12.86a.12.12,0,0,0,.14-.08.13.13,0,0,0,0-.16c-6.05-4.34-6-11.41-4.25-16,0,8.12,8.68,16.84,22.88,16.37h17.7a.35.35,0,0,0,.34-.32A.35.35,0,0,0,250.36,102.71ZM200.22,76.1c-1.73-5.4-5.34-8.67-8.7-9.9a13.65,13.65,0,0,0,8.7-9.8,13.68,13.68,0,0,0,8.71,9.8C205.57,67.43,202,70.7,200.22,76.1Z"/><path class="cls-3" d="M107.54,211.41a16.9,16.9,0,0,1-.09-12.95,16.86,16.86,0,0,1-11.16-6.55.35.35,0,0,0-.34-.14.36.36,0,0,0-.28.25,48.73,48.73,0,0,1-11.88,20,.12.12,0,0,0,0,.15.13.13,0,0,0,.15.07,48.49,48.49,0,0,1,23.22-.31.35.35,0,0,0,.35-.12A.32.32,0,0,0,107.54,211.41Zm31.08-88.84c2.33,7.57,2.48,15.08-.14,20.36a.12.12,0,0,0,0,.16.14.14,0,0,0,.17,0,15.84,15.84,0,0,0,4.69-5.73c2.28,6,2.89,14.92-4.23,19-2.83,1.64-6.4,1.42-8-1.41a5.25,5.25,0,0,1,6.38-7.71.14.14,0,0,0,.15,0,.13.13,0,0,0,0-.16c-4.4-7.32-5.1-12-4.46-20.39a.13.13,0,0,0-.09-.14.13.13,0,0,0-.15.06l-18.08,31.31a.12.12,0,0,0,0,.16.14.14,0,0,0,.17,0,72.89,72.89,0,0,1,9.46-6.71c-2.84,8.15,4.76,17.94,15.91,13.59-11.21,8.53-21.89,5.35-26.75-4.59a.14.14,0,0,0-.11-.07.13.13,0,0,0-.12.06L101.6,180.9a.12.12,0,0,0,0,.15.12.12,0,0,0,.15,0c3.59-1.49,7-1.45,10.36,2.22a.11.11,0,0,0,.16,0,.12.12,0,0,0,.06-.15c-1.14-3.22-3.19-5.87-5.53-6.6,4.63-2.89,9.73-3.66,11.86,0,4.11,7.1-9.77,16.65-20.32,11.1a.12.12,0,0,0-.16,0,.15.15,0,0,0,0,.17,17,17,0,0,0,16.52,6.38A16.91,16.91,0,0,0,112,211.77a.12.12,0,0,0,.14.08.13.13,0,0,0,.11-.13c.47-11.91,15.68-19.15,19.78-12.05,2.13,3.7-1.1,7.73-5.91,10.3.53-2.4-.73-5.5-3-8.09a.12.12,0,0,0-.16,0,.12.12,0,0,0-.06.15c1.48,4.76-.17,7.72-3.26,10.08a.13.13,0,0,0,0,.15.14.14,0,0,0,.13.09h23.72a.15.15,0,0,0,.12-.07.14.14,0,0,0,0-.14c-6.18-9.18-3.6-20,9.4-25.45-9.34,7.47-4.67,19,3.81,20.56a73.31,73.31,0,0,1-10.54,4.84.14.14,0,0,0-.09.15.15.15,0,0,0,.13.11h36.15a.13.13,0,0,0,.13-.11.11.11,0,0,0-.07-.14c-7.58-3.64-11.29-6.59-15.43-14.07a.14.14,0,0,0-.14-.07.14.14,0,0,0-.11.12,5.25,5.25,0,0,1-9.87,1.67c-1.64-2.83,0-6,2.79-7.67,7.12-4.11,14.56.9,18.6,5.85a16,16,0,0,0-7.31,1.21.13.13,0,0,0-.09.14.14.14,0,0,0,.13.11c5.88.37,12.31,4.25,17.7,10.06a.34.34,0,0,0,.46,0,.35.35,0,0,0,.1-.46l-8.85-15.32c-6.68-12.53-18.58-15.69-25.6-11.63,3.11-3.83,9.21-7.4,16-4.34a.13.13,0,0,0,.16,0,.13.13,0,0,0,0-.16c-4.14-4.84-10.75-7.07-18-5.38,5.06-5.4,6.44-12.23,4.31-18.24a.13.13,0,0,0-.14-.09.13.13,0,0,0-.11.12c-.74,7.41-6.89,10.9-11.76,11.69,7-4.06,10.24-15.94,2.74-28-3.36-5.82-6.8-11.76-8.85-15.33a.36.36,0,0,0-.45-.14A.34.34,0,0,0,138.62,122.57Zm2,56.73c-3.82,4.2-4.83,9-4.22,12.49a13.67,13.67,0,0,0-12.84-2.64,13.69,13.69,0,0,0,4.14-12.44C130.46,179,135.1,180.51,140.64,179.3Z"/><path class="cls-3" d="M293,211.77a.36.36,0,0,0,.35.12,48.53,48.53,0,0,1,23.23.31.13.13,0,0,0,.15-.07.14.14,0,0,0,0-.15,48.63,48.63,0,0,1-11.88-20,.37.37,0,0,0-.28-.25.35.35,0,0,0-.34.14A16.86,16.86,0,0,1,293,198.46a16.85,16.85,0,0,1-.09,12.95A.36.36,0,0,0,293,211.77Zm-31.32-89.62a.35.35,0,0,0-.44.14l-8.85,15.33c-7.51,12-4.29,23.93,2.73,28-4.87-.79-11-4.28-11.75-11.69a.15.15,0,0,0-.12-.12.13.13,0,0,0-.14.09c-2.12,6-.75,12.84,4.32,18.24-7.21-1.69-13.81.54-17.95,5.38a.12.12,0,0,0,0,.16.13.13,0,0,0,.16,0c6.78-3.06,12.89.51,16,4.34-7-4.06-18.92-.9-25.6,11.63L211.13,209a.35.35,0,0,0,.56.42c5.38-5.81,11.82-9.69,17.7-10.06a.13.13,0,0,0,.12-.11.12.12,0,0,0-.08-.14,16,16,0,0,0-7.31-1.21c4-5,11.47-10,18.59-5.85,2.83,1.64,4.43,4.84,2.8,7.67a5.26,5.26,0,0,1-9.88-1.67.13.13,0,0,0-.1-.12.13.13,0,0,0-.14.07c-4.14,7.48-7.86,10.43-15.44,14.07a.13.13,0,0,0-.07.14.15.15,0,0,0,.13.11h36.15a.13.13,0,0,0,.13-.11.13.13,0,0,0-.08-.15,72.81,72.81,0,0,1-10.54-4.84c8.47-1.61,13.15-13.09,3.8-20.56,13,5.44,15.59,16.27,9.41,25.45a.13.13,0,0,0,.11.21h23.72a.13.13,0,0,0,.08-.24c-3.09-2.36-4.74-5.32-3.26-10.08a.13.13,0,0,0-.06-.15.14.14,0,0,0-.17,0c-2.21,2.59-3.48,5.69-2.94,8.09-4.82-2.57-8-6.6-5.91-10.3,4.1-7.1,19.31.14,19.77,12.05a.14.14,0,0,0,.26.05,16.91,16.91,0,0,0-2.74-17.49,16.93,16.93,0,0,0,16.52-6.38.13.13,0,0,0-.17-.2c-10.54,5.55-24.42-4-20.32-11.1,2.13-3.69,7.24-2.92,11.87,0-2.35.73-4.39,3.38-5.53,6.6a.11.11,0,0,0,.05.15.12.12,0,0,0,.17,0c3.38-3.67,6.77-3.71,10.36-2.22a.12.12,0,0,0,.15,0,.14.14,0,0,0,0-.15L287,160.35a.14.14,0,0,0-.12-.06.12.12,0,0,0-.11.07c-4.87,9.94-15.54,13.12-26.75,4.59,11.15,4.35,18.75-5.44,15.91-13.59a74.37,74.37,0,0,1,9.46,6.71.14.14,0,0,0,.17,0,.12.12,0,0,0,0-.16L267.5,126.6a.13.13,0,0,0-.15-.06.12.12,0,0,0-.09.14c.63,8.38-.06,13.07-4.47,20.39a.15.15,0,0,0,0,.16.14.14,0,0,0,.15,0,5.25,5.25,0,0,1,6.39,7.71c-1.64,2.83-5.21,3.05-8,1.41-7.13-4.11-6.52-13.06-4.24-19a15.87,15.87,0,0,0,4.7,5.73.12.12,0,0,0,.16,0,.13.13,0,0,0,0-.16c-2.63-5.28-2.48-12.79-.14-20.36A.34.34,0,0,0,261.63,122.15Zm11.1,54.56a13.69,13.69,0,0,0,4.14,12.44A13.69,13.69,0,0,0,264,191.79c.62-3.52-.4-8.29-4.22-12.49C265.35,180.51,270,179,272.73,176.71Z"/><path class="cls-2" d="M211.48,185.81a16.89,16.89,0,0,1-11.26-6.39A16.87,16.87,0,0,1,189,185.81a.32.32,0,0,0-.29.23.34.34,0,0,0,.07.36,48.75,48.75,0,0,1,11.35,20.27.12.12,0,0,0,.12.09.14.14,0,0,0,.13-.09A48.64,48.64,0,0,1,211.7,186.4a.37.37,0,0,0,.07-.36A.34.34,0,0,0,211.48,185.81Zm-61.4-71.33c7.72,1.76,14.3,5.39,17.56,10.3a.12.12,0,0,0,.16,0,.12.12,0,0,0,.08-.14,15.86,15.86,0,0,0-2.61-6.93c6.31,1,14.36,4.95,14.36,13.18,0,3.27-2,6.25-5.24,6.25a5.26,5.26,0,0,1-3.49-9.39.12.12,0,0,0,0-.15.13.13,0,0,0-.13-.08c-8.55.15-13-1.59-19.9-6.34a.14.14,0,0,0-.19.18l18.08,31.3a.13.13,0,0,0,.16.06.12.12,0,0,0,.08-.14A73.76,73.76,0,0,1,168,141.08c5.64,6.53,17.91,4.84,19.72-7,1.79,14-6.3,21.63-17.35,20.87a.13.13,0,0,0-.12.07.15.15,0,0,0,0,.13l11.86,20.55a.15.15,0,0,0,.14.06.14.14,0,0,0,.11-.11c.5-3.86,2.23-6.77,7.09-7.87a.12.12,0,0,0,.11-.13.13.13,0,0,0-.11-.12c-3.36-.63-6.67-.17-8.48,1.49-.18-5.45,1.7-10.26,6-10.26,8.2,0,9.53,16.79-.55,23.15a.13.13,0,0,0,0,.15.13.13,0,0,0,.14.09,16.91,16.91,0,0,0,13.78-11.11A16.92,16.92,0,0,0,214,182.16a.14.14,0,0,0,.14-.09.12.12,0,0,0-.06-.15c-10.08-6.36-8.75-23.15-.54-23.15,4.26,0,6.14,4.81,6,10.26-1.81-1.66-5.13-2.12-8.48-1.49a.12.12,0,0,0-.11.12.12.12,0,0,0,.1.13c4.87,1.1,6.6,4,7.1,7.87a.13.13,0,0,0,.1.11.14.14,0,0,0,.14-.06l11.86-20.55a.11.11,0,0,0,0-.13.12.12,0,0,0-.12-.07c-11,.76-19.13-6.89-17.34-20.87,1.8,11.83,14.08,13.52,19.71,7a72.53,72.53,0,0,1-1.08,11.55.13.13,0,0,0,.25.08l18.07-31.3a.13.13,0,0,0,0-.16.14.14,0,0,0-.17,0c-6.93,4.75-11.35,6.49-19.9,6.34a.13.13,0,0,0-.12.08.13.13,0,0,0,0,.15,5.25,5.25,0,0,1-3.49,9.39c-3.27,0-5.24-3-5.24-6.25,0-8.23,8.06-12.17,14.37-13.18a15.86,15.86,0,0,0-2.62,6.93.13.13,0,0,0,.09.14.11.11,0,0,0,.15,0c3.26-4.91,9.84-8.54,17.56-10.3a.35.35,0,0,0-.07-.69h-17.7c-14.2-.48-22.88,8.25-22.88,16.36-1.75-4.61-1.8-11.68,4.25-16a.12.12,0,0,0,0-.16.13.13,0,0,0-.14-.07c-6.26,1.16-11.5,5.77-13.64,12.86-2.14-7.09-7.37-11.7-13.63-12.86a.15.15,0,0,0-.15.07.14.14,0,0,0,.05.16c6,4.35,6,11.42,4.24,16,0-8.11-8.68-16.84-22.87-16.36h-17.7a.35.35,0,0,0-.08.69Zm50.14,26.61c1.73,5.41,5.35,8.67,8.71,9.9a13.7,13.7,0,0,0-8.71,9.8,13.67,13.67,0,0,0-8.7-9.8C194.88,149.76,198.49,146.5,200.22,141.09Z"/><path class="cls-2" d="M9,111.53A3,3,0,0,0,6.46,116L64.22,216a3,3,0,0,0,5.12,0L127.1,116a3,3,0,0,0-2.56-4.43Z"/><path class="cls-2" d="M-53.86,2.62a2.94,2.94,0,0,0-2.56,1.47,3,3,0,0,0,0,3L1.34,107.1a3,3,0,0,0,5.12,0l57.76-100a3,3,0,0,0-2.56-4.43Z"/><path class="cls-2" d="M71.9,2.62a3,3,0,0,0-2.56,4.43L127.1,107.1a3,3,0,0,0,5.12,0L190,7.05a3,3,0,0,0-2.56-4.43Z"/><path class="cls-3" d="M78,188.74a16.87,16.87,0,0,1-11.25-6.39,16.89,16.89,0,0,1-11.26,6.39.35.35,0,0,0-.21.59A48.74,48.74,0,0,1,66.65,209.6a.14.14,0,0,0,.13.09.12.12,0,0,0,.12-.09,48.75,48.75,0,0,1,11.35-20.27.34.34,0,0,0,.07-.36A.32.32,0,0,0,78,188.74ZM16.64,117.41c7.72,1.76,14.3,5.39,17.56,10.3a.12.12,0,0,0,.15.05.13.13,0,0,0,.09-.14,15.86,15.86,0,0,0-2.62-6.93c6.31,1,14.37,5,14.37,13.18,0,3.27-2,6.25-5.24,6.25a5.25,5.25,0,0,1-3.49-9.39.12.12,0,0,0,0-.14.13.13,0,0,0-.13-.09c-8.54.15-13-1.59-19.89-6.34a.14.14,0,0,0-.17,0,.14.14,0,0,0,0,.16l18.07,31.3a.13.13,0,0,0,.16.06.13.13,0,0,0,.09-.14A72.53,72.53,0,0,1,34.53,144c5.63,6.53,17.91,4.84,19.71-7,1.79,14-6.3,21.63-17.34,20.87a.12.12,0,0,0-.12.07.11.11,0,0,0,0,.13l11.86,20.55a.12.12,0,0,0,.14.06.14.14,0,0,0,.1-.11c.5-3.86,2.23-6.77,7.1-7.87a.12.12,0,0,0,.1-.13.12.12,0,0,0-.11-.12c-3.35-.62-6.67-.17-8.47,1.49-.19-5.45,1.69-10.26,6-10.26,8.21,0,9.54,16.79-.54,23.15a.12.12,0,0,0-.06.15.13.13,0,0,0,.14.09A16.92,16.92,0,0,0,66.78,174a16.91,16.91,0,0,0,13.78,11.11.13.13,0,0,0,.14-.09.13.13,0,0,0,0-.15c-10.08-6.36-8.75-23.15-.55-23.15,4.26,0,6.14,4.81,6,10.26-1.81-1.66-5.12-2.11-8.48-1.49a.13.13,0,0,0-.11.12.12.12,0,0,0,.11.13c4.86,1.1,6.59,4,7.09,7.87a.14.14,0,0,0,.11.11.13.13,0,0,0,.14-.06l11.86-20.55a.15.15,0,0,0,0-.13.14.14,0,0,0-.12-.07c-11,.76-19.14-6.89-17.35-20.87,1.81,11.83,14.08,13.52,19.72,7A73.76,73.76,0,0,1,98,155.56a.12.12,0,0,0,.08.14.13.13,0,0,0,.16-.06l18.08-31.3a.12.12,0,0,0,0-.16.12.12,0,0,0-.16,0c-6.94,4.75-11.35,6.49-19.9,6.34a.13.13,0,0,0-.13.09.11.11,0,0,0,0,.14,5.26,5.26,0,0,1-3.49,9.39c-3.27,0-5.24-3-5.24-6.25,0-8.23,8-12.17,14.36-13.18a15.86,15.86,0,0,0-2.61,6.93.12.12,0,0,0,.08.14.13.13,0,0,0,.16-.05c3.25-4.91,9.83-8.54,17.56-10.3a.35.35,0,0,0-.08-.69H99.14C85,116.24,76.27,125,76.27,133.08c-1.76-4.61-1.8-11.68,4.24-16a.13.13,0,0,0,0-.15.14.14,0,0,0-.15-.08c-6.26,1.16-11.49,5.77-13.63,12.85-2.14-7.08-7.38-11.69-13.64-12.85a.12.12,0,0,0-.14.08.11.11,0,0,0,0,.15c6.05,4.35,6,11.42,4.25,16,0-8.11-8.68-16.84-22.88-16.36H16.72a.35.35,0,0,0-.35.31A.34.34,0,0,0,16.64,117.41ZM66.78,144c1.73,5.41,5.34,8.67,8.7,9.9a13.69,13.69,0,0,0-8.7,9.8,13.7,13.7,0,0,0-8.71-9.8C61.43,152.69,65.05,149.43,66.78,144Z"/><path class="cls-3" d="M159.46,8.72a16.87,16.87,0,0,1,.09,12.94,16.9,16.9,0,0,1,11.16,6.55.33.33,0,0,0,.34.14.35.35,0,0,0,.28-.24,48.61,48.61,0,0,1,11.88-20,.14.14,0,0,0,0-.16.13.13,0,0,0-.15-.06,48.74,48.74,0,0,1-23.22.31.35.35,0,0,0-.35.11A.34.34,0,0,0,159.46,8.72ZM128.38,97.55c-2.33-7.57-2.48-15.08.14-20.35a.14.14,0,0,0,0-.17.17.17,0,0,0-.17,0,16,16,0,0,0-4.69,5.73c-2.28-6-2.89-14.91,4.23-19,2.83-1.63,6.4-1.42,8,1.41a5.25,5.25,0,0,1-6.38,7.72.13.13,0,0,0-.15,0,.12.12,0,0,0,0,.15c4.4,7.33,5.1,12,4.46,20.4a.14.14,0,0,0,.09.14.16.16,0,0,0,.16-.06l18.07-31.31a.13.13,0,0,0-.2-.17,71.92,71.92,0,0,1-9.46,6.71c2.84-8.14-4.76-17.93-15.91-13.58,11.22-8.54,21.89-5.36,26.75,4.58a.13.13,0,0,0,.11.08.12.12,0,0,0,.12-.07l11.87-20.54a.14.14,0,0,0,0-.15.13.13,0,0,0-.15,0c-3.59,1.5-7,1.45-10.36-2.21a.12.12,0,0,0-.16,0,.13.13,0,0,0-.06.16c1.14,3.22,3.19,5.86,5.53,6.6-4.63,2.88-9.73,3.66-11.86,0-4.11-7.11,9.77-16.66,20.32-11.11a.12.12,0,0,0,.16,0,.13.13,0,0,0,0-.16,16.93,16.93,0,0,0-16.52-6.38A16.93,16.93,0,0,0,155,8.35a.12.12,0,0,0-.14-.07.13.13,0,0,0-.11.12c-.47,11.91-15.68,19.15-19.78,12-2.13-3.69,1.1-7.73,5.91-10.29-.53,2.39.73,5.49,3,8.09a.14.14,0,0,0,.16,0,.13.13,0,0,0,.06-.16c-1.48-4.76.17-7.71,3.26-10.08a.11.11,0,0,0,0-.14.13.13,0,0,0-.13-.09H123.54a.12.12,0,0,0-.11.07.11.11,0,0,0,0,.13c6.18,9.19,3.6,20-9.4,25.46,9.34-7.48,4.67-19-3.81-20.57a73.31,73.31,0,0,1,10.54-4.84.13.13,0,0,0,.09-.14.14.14,0,0,0-.13-.11H84.57a.13.13,0,0,0-.06.25c7.58,3.64,11.29,6.58,15.43,14.06a.14.14,0,0,0,.14.07.13.13,0,0,0,.11-.11,5.25,5.25,0,0,1,9.88-1.67c1.63,2.83,0,6-2.8,7.66-7.12,4.11-14.57-.89-18.6-5.85A15.8,15.8,0,0,0,96,21a.13.13,0,0,0,.09-.14.14.14,0,0,0-.13-.12c-5.88-.36-12.31-4.24-17.7-10a.35.35,0,0,0-.56.41l8.85,15.33C93.21,39,105.11,42.13,112.14,38.08c-3.12,3.82-9.22,7.4-16,4.33a.14.14,0,0,0-.16.21c4.14,4.84,10.75,7.07,18,5.38-5.06,5.39-6.44,12.23-4.31,18.24a.13.13,0,0,0,.14.08.11.11,0,0,0,.11-.11c.74-7.41,6.89-10.91,11.76-11.69-7,4-10.24,15.93-2.74,28l8.85,15.33a.35.35,0,0,0,.64-.28Zm-2-56.72c3.82-4.21,4.84-9,4.22-12.49A13.67,13.67,0,0,0,143.42,31a13.69,13.69,0,0,0-4.14,12.44C136.54,41.12,131.91,39.62,126.36,40.83Z"/><path class="cls-3" d="M-25.95,8.35a.36.36,0,0,0-.35-.11,48.78,48.78,0,0,1-23.23-.31.13.13,0,0,0-.15.06.14.14,0,0,0,0,.16,48.5,48.5,0,0,1,11.88,20,.36.36,0,0,0,.28.24.33.33,0,0,0,.34-.14A16.9,16.9,0,0,1-26,21.66,16.83,16.83,0,0,1-25.9,8.72.38.38,0,0,0-25.95,8.35ZM5.37,98a.34.34,0,0,0,.44-.15L14.66,82.5c7.51-12,4.29-23.93-2.73-28,4.87.78,11,4.28,11.75,11.69a.13.13,0,0,0,.12.11.13.13,0,0,0,.14-.08c2.12-6,.75-12.85-4.32-18.24,7.21,1.69,13.81-.54,18-5.38a.15.15,0,0,0,0-.17.14.14,0,0,0-.16,0c-6.78,3.07-12.89-.51-16-4.33,7,4.05,18.92.9,25.6-11.63,3.37-5.82,6.8-11.76,8.85-15.33a.36.36,0,0,0-.09-.46.36.36,0,0,0-.47.05c-5.38,5.81-11.82,9.69-17.7,10.05a.14.14,0,0,0-.12.12.12.12,0,0,0,.08.14,15.82,15.82,0,0,0,7.31,1.2c-4,5-11.47,10-18.59,5.85-2.84-1.63-4.43-4.83-2.8-7.66a5.26,5.26,0,0,1,9.88,1.67.12.12,0,0,0,.1.11.13.13,0,0,0,.14-.07C37.75,14.64,41.47,11.7,49,8.06a.14.14,0,0,0,.08-.15.14.14,0,0,0-.13-.1H12.84a.13.13,0,0,0-.05.25A72.81,72.81,0,0,1,23.33,12.9C14.86,14.51,10.18,26,19.53,33.47,6.52,28,3.94,17.2,10.12,8a.12.12,0,0,0,0-.13A.14.14,0,0,0,10,7.81H-13.71a.13.13,0,0,0-.13.09.13.13,0,0,0,.05.14c3.09,2.37,4.74,5.32,3.26,10.08a.14.14,0,0,0,.06.16.15.15,0,0,0,.17,0c2.21-2.6,3.48-5.7,2.94-8.09,4.82,2.56,8,6.6,5.91,10.29-4.1,7.1-19.31-.14-19.77-12a.14.14,0,0,0-.11-.12.13.13,0,0,0-.15.07,16.93,16.93,0,0,0,2.74,17.5,16.92,16.92,0,0,0-16.52,6.38.12.12,0,0,0,0,.16.14.14,0,0,0,.17,0c10.54-5.55,24.42,4,20.32,11.11-2.13,3.69-7.24,2.91-11.87,0,2.34-.74,4.39-3.38,5.53-6.6a.13.13,0,0,0-.05-.16.14.14,0,0,0-.17,0c-3.38,3.66-6.77,3.71-10.36,2.21a.13.13,0,0,0-.15,0,.14.14,0,0,0,0,.15L-20,59.77a.13.13,0,0,0,.12.07.12.12,0,0,0,.11-.08C-14.89,49.82-4.22,46.64,7,55.18-4.16,50.83-11.76,60.62-8.92,68.76a73.35,73.35,0,0,1-9.46-6.71.14.14,0,0,0-.17,0,.14.14,0,0,0,0,.17L-.5,93.53a.14.14,0,0,0,.15.06.13.13,0,0,0,.09-.14c-.63-8.38.06-13.07,4.47-20.4a.14.14,0,0,0,0-.15.13.13,0,0,0-.15,0,5.26,5.26,0,0,1-6.39-7.72c1.63-2.83,5.21-3,8-1.41,7.13,4.12,6.51,13.06,4.24,19A16,16,0,0,0,5.23,77a.15.15,0,0,0-.16,0,.14.14,0,0,0,0,.17C7.66,82.47,7.51,90,5.17,97.55A.36.36,0,0,0,5.37,98ZM-5.73,43.41A13.71,13.71,0,0,0-9.86,31,13.67,13.67,0,0,0,3,28.34c-.62,3.52.4,8.28,4.22,12.49C1.65,39.62-3,41.12-5.73,43.41Z"/><path class="cls-2" d="M55.52,34.32a16.85,16.85,0,0,1,11.26,6.39A16.83,16.83,0,0,1,78,34.32a.35.35,0,0,0,.29-.23.34.34,0,0,0-.07-.36A48.75,48.75,0,0,1,66.9,13.46a.12.12,0,0,0-.12-.1.14.14,0,0,0-.13.1A48.74,48.74,0,0,1,55.31,33.73a.34.34,0,0,0-.08.36A.38.38,0,0,0,55.52,34.32Zm61.4,71.32c-7.72-1.76-14.3-5.39-17.56-10.3a.14.14,0,0,0-.16,0,.12.12,0,0,0-.08.14,15.85,15.85,0,0,0,2.61,6.94c-6.31-1-14.36-5-14.36-13.18,0-3.27,2-6.26,5.24-6.26a5.26,5.26,0,0,1,3.49,9.39.13.13,0,0,0,0,.15.14.14,0,0,0,.13.09c8.55-.16,13,1.59,19.9,6.33a.12.12,0,0,0,.16,0,.12.12,0,0,0,0-.16L98.19,67.41a.14.14,0,0,0-.16-.06.13.13,0,0,0-.08.15A73.62,73.62,0,0,1,99,79.05c-5.64-6.54-17.91-4.85-19.72,7-1.79-14,6.3-21.63,17.35-20.87a.16.16,0,0,0,.12-.06.17.17,0,0,0,0-.14L84.92,44.42a.12.12,0,0,0-.14-.06.13.13,0,0,0-.11.11c-.5,3.85-2.23,6.76-7.09,7.86a.13.13,0,0,0-.11.13.14.14,0,0,0,.11.13c3.36.62,6.67.17,8.48-1.5.18,5.46-1.7,10.27-6,10.27-8.2,0-9.53-16.79.55-23.15a.14.14,0,0,0-.09-.25A16.92,16.92,0,0,0,66.78,49.08,16.94,16.94,0,0,0,53,38a.14.14,0,0,0-.14.09.13.13,0,0,0,.06.16c10.08,6.36,8.75,23.15.54,23.15-4.26,0-6.14-4.81-6-10.27,1.8,1.67,5.12,2.12,8.48,1.5a.13.13,0,0,0,0-.26c-4.87-1.1-6.6-4-7.1-7.86a.13.13,0,0,0-.1-.11.12.12,0,0,0-.14.06L36.78,65a.12.12,0,0,0,0,.14.13.13,0,0,0,.12.06C47.94,64.4,56,72.05,54.24,86c-1.8-11.83-14.08-13.52-19.71-7A72.4,72.4,0,0,1,35.61,67.5a.14.14,0,0,0-.09-.15.15.15,0,0,0-.16.06L17.29,98.72a.13.13,0,0,0,.19.17c6.93-4.74,11.35-6.49,19.89-6.33a.14.14,0,0,0,.13-.09.14.14,0,0,0,0-.15A5.25,5.25,0,0,1,41,82.93c3.27,0,5.24,3,5.24,6.26,0,8.22-8.06,12.16-14.37,13.18a15.86,15.86,0,0,0,2.62-6.94.13.13,0,0,0-.09-.14.13.13,0,0,0-.15,0c-3.26,4.91-9.84,8.54-17.56,10.3a.35.35,0,0,0-.27.38.36.36,0,0,0,.35.32H34.41c14.2.47,22.88-8.25,22.88-16.37,1.75,4.62,1.8,11.69-4.25,16a.13.13,0,0,0,0,.16.12.12,0,0,0,.14.08c6.26-1.17,11.5-5.78,13.64-12.86,2.14,7.08,7.37,11.69,13.63,12.86a.13.13,0,0,0,.15-.08.14.14,0,0,0,0-.16c-6-4.34-6-11.41-4.24-16,0,8.12,8.68,16.84,22.87,16.37h17.7a.35.35,0,0,0,.08-.7ZM66.78,79c-1.73-5.4-5.35-8.67-8.71-9.9a13.68,13.68,0,0,0,8.71-9.8,13.67,13.67,0,0,0,8.7,9.8C72.12,70.36,68.51,73.63,66.78,79Z"/><path class="cls-2" d="M53.87,217.51a3,3,0,0,0,2.55-4.43L-1.34,113a3,3,0,0,0-2.56-1.48A3,3,0,0,0-6.46,113L-64.22,213.08a2.94,2.94,0,0,0,0,2.95,3,3,0,0,0,2.56,1.48Z"/><path class="cls-3" d="M26,211.77a.36.36,0,0,0,.35.12,48.53,48.53,0,0,1,23.23.31.13.13,0,0,0,.15-.07.14.14,0,0,0,0-.15,48.63,48.63,0,0,1-11.88-20,.37.37,0,0,0-.28-.25.35.35,0,0,0-.34.14A16.86,16.86,0,0,1,26,198.46a16.85,16.85,0,0,1-.09,12.95A.36.36,0,0,0,26,211.77ZM-5.37,122.15a.35.35,0,0,0-.44.14l-8.85,15.33c-7.51,12-4.29,23.93,2.73,28-4.87-.79-11-4.28-11.75-11.69a.15.15,0,0,0-.12-.12.13.13,0,0,0-.14.09c-2.12,6-.75,12.84,4.32,18.24-7.21-1.69-13.81.54-17.95,5.38a.12.12,0,0,0,0,.16.13.13,0,0,0,.16,0c6.78-3.06,12.89.51,16,4.34-7-4.06-18.92-.9-25.6,11.63L-55.87,209a.36.36,0,0,0,.09.46.35.35,0,0,0,.47,0c5.38-5.81,11.82-9.69,17.7-10.06a.13.13,0,0,0,.12-.11.12.12,0,0,0-.08-.14,16,16,0,0,0-7.31-1.21c4-5,11.47-10,18.59-5.85,2.83,1.64,4.43,4.84,2.8,7.67a5.26,5.26,0,0,1-9.88-1.67.13.13,0,0,0-.1-.12.13.13,0,0,0-.14.07c-4.14,7.48-7.86,10.43-15.44,14.07a.13.13,0,0,0-.07.14.15.15,0,0,0,.13.11h36.15a.13.13,0,0,0,.13-.11.13.13,0,0,0-.08-.15,72.81,72.81,0,0,1-10.54-4.84c8.47-1.61,13.15-13.09,3.8-20.56,13,5.44,15.59,16.27,9.41,25.45a.14.14,0,0,0,0,.14.14.14,0,0,0,.12.07H13.71a.13.13,0,0,0,.08-.24c-3.09-2.36-4.74-5.32-3.26-10.08a.13.13,0,0,0-.06-.15.14.14,0,0,0-.17,0c-2.21,2.59-3.48,5.69-2.94,8.09-4.82-2.57-8-6.6-5.91-10.3,4.1-7.1,19.31.14,19.77,12.05a.14.14,0,0,0,.26.05,16.91,16.91,0,0,0-2.74-17.49,16.93,16.93,0,0,0,16.52-6.38.13.13,0,0,0-.17-.2c-10.54,5.55-24.42-4-20.32-11.1,2.13-3.69,7.24-2.92,11.87,0-2.35.73-4.39,3.38-5.53,6.6a.11.11,0,0,0,.05.15.12.12,0,0,0,.17,0c3.38-3.67,6.77-3.71,10.36-2.22a.12.12,0,0,0,.15,0,.14.14,0,0,0,0-.15L20,160.35a.14.14,0,0,0-.12-.06.12.12,0,0,0-.11.07C14.89,170.3,4.22,173.48-7,165c11.15,4.35,18.75-5.44,15.91-13.59a74.37,74.37,0,0,1,9.46,6.71.14.14,0,0,0,.17,0,.12.12,0,0,0,0-.16L.5,126.6a.13.13,0,0,0-.15-.06.12.12,0,0,0-.09.14c.63,8.38-.06,13.07-4.47,20.39a.15.15,0,0,0,0,.16.14.14,0,0,0,.15,0A5.25,5.25,0,0,1,2.34,155c-1.64,2.83-5.21,3.05-8,1.41-7.13-4.11-6.52-13.06-4.24-19a15.87,15.87,0,0,0,4.7,5.73.12.12,0,0,0,.16,0,.13.13,0,0,0,0-.16c-2.63-5.28-2.48-12.79-.14-20.36A.34.34,0,0,0-5.37,122.15Zm11.1,54.56a13.69,13.69,0,0,0,4.14,12.44A13.69,13.69,0,0,0-3,191.79c.62-3.52-.4-8.29-4.22-12.49C-1.65,180.51,3,179,5.73,176.71Z"/></pattern></defs><title>Mesa de trabajo 7</title><rect class="cls-4" x="2.44" y="4.15" width="38.11" height="35.48"/></svg>