<?xml version="1.0" encoding="utf-8"?>
<!-- Generator: Adobe Illustrator 22.0.1, SVG Export Plug-In . SVG Version: 6.00 Build 0)  -->
<svg version="1.1" id="Capa_1" xmlns="http://www.w3.org/2000/svg" xmlns:xlink="http://www.w3.org/1999/xlink" x="0px" y="0px"
	 viewBox="0 0 30 30.7" style="enable-background:new 0 0 30 30.7;" xml:space="preserve">
<style type="text/css">
	.st0{fill:url(#SVGID_1_);}
	.st1{fill:#8B98A0;}
	.st2{opacity:0.8;}
	.st3{fill:url(#SVGID_2_);}
	.st4{fill:url(#SVGID_3_);}
	.st5{fill:url(#SVGID_4_);}
	.st6{opacity:0.8;fill:url(#SVGID_5_);enable-background:new    ;}
	.st7{opacity:0.8;fill:url(#SVGID_6_);enable-background:new    ;}
</style>
<symbol  id="Usuario_-_Gris" viewBox="-32 -32 64 64">
	<radialGradient id="SVGID_1_" cx="0" cy="22.57" r="32.4643" gradientUnits="userSpaceOnUse">
		<stop  offset="0" style="stop-color:#E7ECEF"/>
		<stop  offset="1" style="stop-color:#BFC8CD"/>
	</radialGradient>
	<circle class="st0" cx="0" cy="0" r="31.5"/>
	<path class="st1" d="M0-31c17.1,0,31,13.9,31,31S17.1,31,0,31S-31,17.1-31,0S-17.1-31,0-31 M0-32c-17.7,0-32,14.3-32,32
		s14.3,32,32,32S32,17.7,32,0S17.7-32,0-32z"/>
	<g class="st2">
		<linearGradient id="SVGID_2_" gradientUnits="userSpaceOnUse" x1="-0.753" y1="-11.291" x2="15.827" y2="52.239">
			<stop  offset="0" style="stop-color:#FFFFFF"/>
			<stop  offset="1" style="stop-color:#B7C6CE"/>
		</linearGradient>
		<path class="st3" d="M21.4-22.4C33-9.8,32.1,9.8,19.5,21.4c-11.9,10.9-30.1,10.9-41.9,0C-10.8,34,8.8,34.9,21.4,23.3
			s13.5-31.2,1.9-43.8C22.7-21.2,22.1-21.8,21.4-22.4z"/>
	</g>
	<g>
		<linearGradient id="SVGID_3_" gradientUnits="userSpaceOnUse" x1="-8.4637" y1="-30.789" x2="2.9763" y2="10.821">
			<stop  offset="0" style="stop-color:#FFFBD4"/>
			<stop  offset="1" style="stop-color:#000000"/>
		</linearGradient>
		<path class="st4" d="M-7.6,5.7C3.2-3.7,17.3-12.4,29.4-5.8C26.3-22.1,10.5-32.7-5.8-29.5S-32.6-10.6-29.5,5.7
			c0.4,1.9,0.9,3.8,1.7,5.6C-23,12.5-15.6,12.6-7.6,5.7z"/>
	</g>
	<g>
		<linearGradient id="SVGID_4_" gradientUnits="userSpaceOnUse" x1="-13.8958" y1="-36.3407" x2="7.3942" y2="25.3893">
			<stop  offset="0" style="stop-color:#FFFFFF"/>
			<stop  offset="1" style="stop-color:#000000"/>
		</linearGradient>
		<path class="st5" d="M-28,2c0-16.6,13.4-30,30-30c7.5,0,14.6,2.8,20.2,7.8c-11-12.4-30-13.4-42.4-2.4s-13.4,30-2.4,42.4
			c0.7,0.8,1.5,1.6,2.4,2.4C-25.2,16.7-28,9.5-28,2z"/>
	</g>
	<g class="st2">
		<linearGradient id="SVGID_5_" gradientUnits="userSpaceOnUse" x1="1.01" y1="21.06" x2="1.01" y2="-16.44">
			<stop  offset="0" style="stop-color:#FFFFFF"/>
			<stop  offset="1" style="stop-color:#B7C6CE"/>
		</linearGradient>
		<path class="st6" d="M1-13.9c4.6,0,8.3,3.7,8.3,8.3C9.3-1,5.6,2.7,1,2.7c-4.6,0-8.3-3.7-8.3-8.3c0,0,0,0,0,0
			C-7.3-10.2-3.6-13.9,1-13.9"/>
		<linearGradient id="SVGID_6_" gradientUnits="userSpaceOnUse" x1="1" y1="21.06" x2="1" y2="-16.44">
			<stop  offset="0" style="stop-color:#FFFFFF"/>
			<stop  offset="1" style="stop-color:#B7C6CE"/>
		</linearGradient>
		<path class="st7" d="M7.8,2C3.9,5.5-1.9,5.5-5.8,2c-5.1,2.8-8.2,8.1-8.2,13.9h30C16,10.1,12.9,4.8,7.8,2z"/>
	</g>
	<path d="M0-14.9c4.6,0,8.3,3.7,8.3,8.3S4.6,1.8,0,1.8S-8.3-2-8.3-6.6l0,0C-8.3-11.2-4.6-14.9,0-14.9"/>
	<path d="M6.8,1C2.9,4.5-2.9,4.5-6.8,1C-11.9,3.8-15,9.1-15,14.9h30C15,9.1,11.9,3.8,6.8,1z"/>
</symbol>
<title>Mesa de trabajo 6</title>
<g id="userPic">
	
		<use xlink:href="#Usuario_-_Gris"  width="64" height="64" x="-32" y="-32" transform="matrix(0.43 0 0 0.43 14.917 15.339)" style="overflow:visible;"/>
</g>
</svg>
