<svg xmlns="http://www.w3.org/2000/svg" xmlns:xlink="http://www.w3.org/1999/xlink" viewBox="0 0 44.88 45.22"><defs><style>.cls-1{fill:url(#radial-gradient);}.cls-2{fill:#8b98a0;}.cls-3,.cls-8,.cls-9{opacity:0.8;mix-blend-mode:multiply;}.cls-4{fill:url(#linear-gradient);}.cls-5{mix-blend-mode:screen;}.cls-6{fill:url(#linear-gradient-2);}.cls-7{fill:url(#linear-gradient-3);}.cls-8{fill:url(#linear-gradient-4);}.cls-9{fill:url(#linear-gradient-5);}</style><radialGradient id="radial-gradient" cx="31.94" cy="54.57" r="32.48" gradientTransform="translate(0)" gradientUnits="userSpaceOnUse"><stop offset="0" stop-color="#e7ecef"/><stop offset="1" stop-color="#bfc8cd"/></radialGradient><linearGradient id="linear-gradient" x1="31.09" y1="20.75" x2="47.67" y2="84.28" gradientUnits="userSpaceOnUse"><stop offset="0" stop-color="#fff"/><stop offset="1" stop-color="#b7c6ce"/></linearGradient><linearGradient id="linear-gradient-2" x1="23.54" y1="1.21" x2="34.98" y2="42.82" gradientUnits="userSpaceOnUse"><stop offset="0" stop-color="#fffbd4"/><stop offset="1"/></linearGradient><linearGradient id="linear-gradient-3" x1="18.16" y1="-4.36" x2="39.45" y2="57.37" gradientUnits="userSpaceOnUse"><stop offset="0" stop-color="#fff"/><stop offset="1"/></linearGradient><linearGradient id="linear-gradient-4" x1="33" y1="53.06" x2="33" y2="15.56" xlink:href="#linear-gradient"/><linearGradient id="linear-gradient-5" x1="33" y1="53.06" x2="33" y2="15.56" xlink:href="#linear-gradient"/><symbol id="Usuario_-_Gris" data-name="Usuario - Gris" viewBox="0 0 64 64"><circle class="cls-1" cx="32" cy="32" r="31.5"/><path class="cls-2" d="M32,1A31,31,0,1,1,1,32,31,31,0,0,1,32,1m0-1A32,32,0,1,0,64,32,32,32,0,0,0,32,0Z"/><g class="cls-3"><path class="cls-4" d="M53.4,9.6A31,31,0,0,1,9.6,53.4,31,31,0,1,0,53.4,9.6Z"/></g><g class="cls-5"><path class="cls-6" d="M24.36,37.7C35.23,28.34,49.3,19.61,61.43,26.2A30,30,0,1,0,4.23,43.33C9,44.53,16.39,44.56,24.36,37.7Z"/></g><g class="cls-5"><path class="cls-7" d="M4,34A30,30,0,0,1,54.18,11.82,30,30,0,1,0,11.82,54.18,29.9,29.9,0,0,1,4,34Z"/></g><g class="cls-3"><path class="cls-8" d="M33,18.11a8.32,8.32,0,1,1-8.31,8.32A8.32,8.32,0,0,1,33,18.11"/><path class="cls-9" d="M39.79,34a10.17,10.17,0,0,1-13.58,0A15.75,15.75,0,0,0,18,47.89H48A15.75,15.75,0,0,0,39.79,34Z"/></g><path d="M32,17.11a8.32,8.32,0,1,1-8.32,8.32A8.33,8.33,0,0,1,32,17.11"/><path d="M38.79,33a10.17,10.17,0,0,1-13.58,0A15.75,15.75,0,0,0,17,46.89H47A15.74,15.74,0,0,0,38.79,33Z"/></symbol></defs><title>Mesa de trabajo 6</title><g id="userPic"><use width="64" height="64" transform="translate(8.66 6.78) scale(0.43)" xlink:href="#Usuario_-_Gris"/></g></svg>